<?xml version="1.0" encoding="utf-8"?>
<!-- Generator: Adobe Illustrator 18.1.1, SVG Export Plug-In . SVG Version: 6.00 Build 0)  -->
<svg version="1.1" id="Layer_1" xmlns="http://www.w3.org/2000/svg" xmlns:xlink="http://www.w3.org/1999/xlink" x="0px" y="0px"
	 viewBox="0 0 361.9 152.6" enable-background="new 0 0 361.9 152.6" xml:space="preserve">
<g>
	<path fill="#282829" d="M234.1,106.7c0.4-0.2,0.6-0.1,0.8,0.1l1.2,2.2c0.1,0.2,0,0.5-0.2,0.7c-1.3,0.9-3.7,1.7-6.1,1.7
		c-2.7,0-4.9-0.8-6.4-2.4c-1.5-1.5-2.4-3.7-2.4-6.2c0-2.4,0.9-4.5,2.4-6c1.4-1.4,3.4-2.3,5.9-2.3c2.9,0,5,1.1,6.2,2.8
		c1.2,1.6,1.6,3.7,1.4,6.2c0,0.3-0.2,0.5-0.5,0.5h-10.5c0.1,1.1,0.5,1.9,1.1,2.5c0.7,0.8,1.8,1.2,3.1,1.2
		C231.7,107.8,232.9,107.4,234.1,106.7z M232.5,101.3c0-0.9-0.3-1.6-0.8-2.2c-0.5-0.6-1.4-1-2.4-1c-1.1,0-2,0.4-2.5,1
		c-0.5,0.6-0.8,1.3-0.9,2.2H232.5z"/>
	<path fill="#282829" d="M247.5,107.7c0.4-0.2,0.6-0.7,0.6-1.2c0-0.8-0.6-1.1-1.4-1.5c-1.1-0.5-2.3-0.8-3.5-1.3
		c-1.8-0.8-2.8-2.2-2.8-4.3c0-1.4,0.5-2.6,1.6-3.5c1.1-0.8,2.7-1.3,4.8-1.3c2.6,0,4.1,0.5,5.4,1.2c0.4,0.2,0.4,0.5,0.2,0.7l-1.2,2.5
		c-0.1,0.3-0.4,0.3-0.6,0.2c-1.4-0.8-2.5-1-3.6-1c-0.6,0-1.1,0.1-1.5,0.3c-0.3,0.2-0.5,0.5-0.5,0.9c0,0.7,0.6,1.1,1.4,1.4
		c1.1,0.4,2.3,0.7,3.5,1.3c2,1,2.9,2.3,2.9,4.1c0,1.6-0.7,3-2,3.9c-1.2,0.8-2.8,1.3-4.7,1.3c-2.8,0-4.5-0.6-5.8-1.3
		c-0.3-0.2-0.4-0.4-0.2-0.7l1.2-2.5c0.1-0.3,0.4-0.4,0.7-0.2c1.4,0.9,2.5,1.3,4.1,1.3C246.6,108,247.2,107.9,247.5,107.7z"/>
	<path fill="#282829" d="M262.3,104.7c0,0.8,0.1,1.4,0.4,1.8c0.3,0.6,0.8,0.8,1.6,0.8c0.7,0,1.4-0.2,2.3-0.9
		c0.3-0.2,0.6-0.2,0.7,0.1l1.2,2.6c0.1,0.2,0,0.5-0.2,0.7c-1.3,0.9-3.2,1.5-5.3,1.5c-2,0-3.3-0.6-4.1-1.6c-1-1.2-1.3-2.9-1.3-4.5
		v-6.8h-1.8c-0.3,0-0.5-0.2-0.5-0.6v-2.6c0-0.3,0.2-0.5,0.5-0.5h1.8v-3.2c0-0.3,0.2-0.5,0.5-0.5h3.6c0.3,0,0.5,0.2,0.5,0.5v3.2h4.4
		c0.3,0,0.5,0.2,0.5,0.5V98c0,0.3-0.2,0.6-0.5,0.6h-4.4V104.7z"/>
	<path fill="#282829" d="M272.2,94.9h3.6c0.3,0,0.5,0.2,0.5,0.5v15.1c0,0.3-0.2,0.5-0.5,0.5h-3.6c-0.3,0-0.5-0.2-0.5-0.5V95.5
		C271.6,95.1,271.8,94.9,272.2,94.9z"/>
	<path fill="#282829" d="M286.2,96.3c0.3-0.4,0.7-0.7,1.1-1c0.9-0.5,1.8-0.7,2.9-0.7c1.1,0,2.2,0.2,3.1,0.7c0.8,0.4,1.5,1,2,1.7
		c0.5-0.6,1.2-1.2,2.2-1.7c0.8-0.4,1.9-0.6,3.1-0.6c1.7,0,3.4,0.5,4.6,1.6c1.1,1,1.8,2.6,1.8,4.9v9.4c0,0.3-0.2,0.5-0.5,0.5h-3.6
		c-0.3,0-0.5-0.2-0.5-0.5v-8.4c0-1.1-0.2-2.2-0.7-2.9c-0.4-0.5-1-0.9-2-0.9c-1.1,0-1.8,0.5-2.2,1.3c-0.5,0.9-0.6,2-0.6,3.4v7.4
		c0,0.3-0.2,0.5-0.5,0.5h-3.6c-0.3,0-0.5-0.2-0.5-0.5v-8.4c0-1.1-0.2-2.2-0.7-2.9c-0.4-0.5-1-0.9-2-0.9c-1.1,0-1.8,0.5-2.2,1.3
		c-0.4,0.7-0.6,1.8-0.6,3v7.9c0,0.3-0.2,0.5-0.5,0.5h-3.6c-0.3,0-0.5-0.2-0.5-0.5V95.5c0-0.3,0.2-0.5,0.5-0.5h3.5
		c0.3,0,0.5,0.2,0.5,0.5v0.9H286.2z"/>
	<path fill="#282829" d="M313.5,96.8c1.6-1.4,3.7-2.2,6.1-2.2c2.4,0,4.6,0.8,6.1,2.2c1.7,1.4,2.6,3.6,2.6,6.2c0,2.6-1,4.8-2.6,6.2
		c-1.6,1.4-3.7,2.2-6.1,2.2c-2.4,0-4.5-0.8-6.1-2.2c-1.7-1.4-2.7-3.6-2.7-6.2C310.8,100.5,311.8,98.3,313.5,96.8z M316.6,106.4
		c0.7,0.8,1.8,1.3,2.9,1.3c1.2,0,2.2-0.5,2.9-1.3c0.7-0.8,1.2-2,1.2-3.4c0-1.3-0.5-2.5-1.2-3.4c-0.7-0.8-1.8-1.2-2.9-1.2
		c-1.2,0-2.2,0.5-2.9,1.2c-0.7,0.8-1.2,2-1.2,3.4C315.4,104.4,315.9,105.5,316.6,106.4z"/>
	<path fill="#282829" d="M337.9,104.7c0,0.8,0.1,1.4,0.4,1.8c0.3,0.6,0.8,0.8,1.6,0.8c0.7,0,1.4-0.2,2.3-0.9
		c0.3-0.2,0.6-0.2,0.7,0.1l1.2,2.6c0.1,0.2,0,0.5-0.2,0.7c-1.3,0.9-3.2,1.5-5.3,1.5c-2,0-3.3-0.6-4.1-1.6c-1-1.2-1.3-2.9-1.3-4.5
		v-6.8h-1.8c-0.3,0-0.5-0.2-0.5-0.6v-2.6c0-0.3,0.2-0.5,0.5-0.5h1.8v-3.2c0-0.3,0.2-0.5,0.5-0.5h3.6c0.3,0,0.5,0.2,0.5,0.5v3.2h4.4
		c0.3,0,0.5,0.2,0.5,0.5V98c0,0.3-0.2,0.6-0.5,0.6h-4.4V104.7z"/>
	<path fill="#282829" d="M359,106.7c0.4-0.2,0.6-0.1,0.8,0.1l1.2,2.2c0.1,0.2,0,0.5-0.2,0.7c-1.3,0.9-3.7,1.7-6.1,1.7
		c-2.7,0-4.9-0.8-6.4-2.4c-1.5-1.5-2.4-3.7-2.4-6.2c0-2.4,0.9-4.5,2.4-6c1.4-1.4,3.4-2.3,5.9-2.3c2.9,0,5,1.1,6.2,2.8
		c1.2,1.6,1.6,3.7,1.4,6.2c0,0.3-0.2,0.5-0.5,0.5h-10.5c0.1,1.1,0.5,1.9,1.1,2.5c0.7,0.8,1.8,1.2,3.1,1.2
		C356.6,107.8,357.8,107.4,359,106.7z M357.4,101.3c0-0.9-0.3-1.6-0.8-2.2c-0.5-0.6-1.4-1-2.4-1c-1.1,0-2,0.4-2.5,1
		c-0.5,0.6-0.8,1.3-0.9,2.2H357.4z"/>
	<path fill="#282829" d="M271.2,89.3c0-1.5,1.2-2.7,2.7-2.7c1.5,0,2.7,1.2,2.7,2.7c0,1.5-1.2,2.7-2.7,2.7
		C272.4,92,271.2,90.8,271.2,89.3"/>
</g>
<polygon fill="#E1DC1D" stroke="#E1DC1D" stroke-linecap="round" stroke-linejoin="round" points="140.3,152.1 142.9,149.6 
	180,125.5 187.9,126.5 "/>
<g>
	<g>
		<polygon fill="#ADAE36" stroke="#ADAE36" stroke-linecap="round" stroke-linejoin="round" points="142.8,127.8 133.8,120.6 
			149.6,98.9 162,101.7 		"/>
		<polygon fill="#D7D325" stroke="#D7D325" stroke-linecap="round" stroke-linejoin="round" points="142.9,149.6 142.8,127.8 
			162,101.7 193.3,94.9 194.5,101.4 180,125.5 		"/>
		<polygon fill="#A3A336" stroke="#A3A336" stroke-linecap="round" stroke-linejoin="round" points="123.2,122.2 133.8,120.6 
			149.6,98.9 117.2,87.1 119.6,105.4 		"/>
		<polygon fill="#CCC92B" stroke="#CCC92B" stroke-linecap="round" stroke-linejoin="round" points="129.2,143.6 123.2,122.2 
			133.8,120.6 142.8,127.8 142.9,149.6 140.2,152.1 		"/>
	</g>
	<polygon fill="#EDE80F" stroke="#EDE80F" points="187.8,126.5 191.5,122.2 194.5,101.4 180,125.5 	"/>
</g>
<g>
	<polygon fill="#7CA38B" stroke="#7CA38B" stroke-linecap="round" stroke-linejoin="round" points="150.8,68 150.1,98.9 
		162.5,101.7 188.4,77.6 167.1,65.9 	"/>
	<polygon fill="#99C5A7" stroke="#99C5A7" stroke-linecap="round" stroke-linejoin="round" points="231.3,71.5 236.7,65.6 
		194.4,22.3 180.5,28.4 167.1,65.9 188.4,77.6 	"/>
	<polygon fill="#9FCDAE" stroke="#9FCDAE" stroke-linecap="round" stroke-linejoin="round" points="193.8,94.9 162.5,101.7 
		188.4,77.6 231.3,71.5 214.6,83.5 	"/>
	<polygon fill="#8DB59B" stroke="#8DB59B" stroke-linecap="round" stroke-linejoin="round" points="150.8,68 127.6,64 117.8,87.2 
		150.1,98.9 	"/>
	<polygon fill="#ABD1B7" stroke="#ABD1B7" stroke-linecap="round" stroke-linejoin="round" points="180.5,28.4 143.3,33.7 127.6,64 
		150.8,68 167.1,65.9 	"/>
	<polygon fill="#C2DCC9" stroke="#C2DCC9" stroke-linecap="round" stroke-linejoin="round" points="145.7,29.2 176.5,22.3 
		194.4,22.3 180.5,28.4 143.3,33.7 	"/>
</g>
<g>
	<polygon fill="#49499E" stroke="#49499E" stroke-linecap="round" stroke-linejoin="round" points="143.3,33.7 93,1.9 79.2,20 
		89.9,48.2 127.6,64 	"/>
	<polygon fill="#383B95" stroke="#383B95" stroke-linecap="round" stroke-linejoin="round" points="117.8,87.2 91.6,77.6 85.8,72.9 
		89.9,48.2 127.6,64 	"/>
	<polygon fill="#5C58A6" stroke="#5C58A6" stroke-linecap="round" stroke-linejoin="round" points="143.3,33.7 145.7,29.2 
		138.3,19.8 112.7,5.5 95.5,0.5 93,1.9 	"/>
	<polygon fill="#6461AB" stroke="#6461AB" stroke-linecap="round" stroke-linejoin="round" points="85.8,72.9 89.9,48.2 79.2,20 
		74.2,30.5 	"/>
</g>
<polygon fill="#A0DDF9" stroke="#A0DDF9" stroke-linecap="round" stroke-linejoin="round" points="67.1,55 74.2,30.5 85.8,72.9 
	81.4,72.1 "/>
<polygon fill="#C6E7F8" stroke="#C6E7F8" stroke-linecap="round" stroke-linejoin="round" points="65.2,47.3 74.2,30.5 67.1,55 "/>
<polygon fill="#69C5EA" stroke="#69C5EA" stroke-linecap="round" stroke-linejoin="round" points="85.2,76.4 81.4,72.1 85.8,72.9 
	91.6,77.6 "/>
<polygon fill="#F7C1DA" stroke="#F7C1DA" stroke-linecap="round" stroke-linejoin="round" points="50.8,64.9 67.1,54.9 81.4,71.9 
	54.7,76.2 "/>
<polygon fill="#F6AECD" stroke="#F6AECD" stroke-linecap="round" stroke-linejoin="round" points="57.4,94.9 54.7,76.3 81.4,72.1 
	85.2,76.4 68.4,103 "/>
<polygon fill="#E689B3" stroke="#E689B3" points="114.4,86 91.6,77.6 85.2,76.4 68.4,103 76.4,113.3 93,120.6 95.9,117.9 "/>
<polygon fill="#FACDDF" stroke="#FACDDF" points="65.2,47.3 58.2,45.1 43.8,55 50.8,65 67.1,55 "/>
<polygon fill="#F9D5E3" stroke="#F9D5E3" points="65.2,47.3 58.2,45.1 66.4,45.1 "/>
<polygon fill="#DB7AA6" stroke="#DB7AA6" points="54.7,96.4 57.4,94.9 68.4,103 76.4,113.3 "/>
<polygon fill="#701B57" stroke="#701B57" stroke-linecap="round" stroke-linejoin="round" points="50.8,64.8 2.6,65.7 0.5,89.2 
	19.4,113.1 54.6,76.1 "/>
<polygon fill="#62144B" stroke="#62144B" stroke-width="0.75" stroke-linecap="round" stroke-linejoin="round" points="24.5,118.1 
	19.5,113.1 54.7,76.1 57.4,94.6 "/>
<polygon fill="#872269" stroke="#872269" stroke-linecap="round" stroke-linejoin="round" points="43.7,54.9 50.8,64.9 2.6,65.8 
	6.1,61.3 "/>
<polygon fill="#9E237A" stroke="#9E237A" stroke-linecap="round" stroke-linejoin="round" points="19.5,113.1 0.5,89.2 14.2,114.8 
	"/>
<polygon fill="#8F236F" stroke="#8F236F" stroke-linecap="round" stroke-linejoin="round" points="24.5,118.1 17.2,118.1 
	14.2,114.8 19.5,113.1 "/>
</svg>
