<?xml version="1.0" encoding="utf-8"?>
<!-- Generator: Adobe Illustrator 18.1.1, SVG Export Plug-In . SVG Version: 6.00 Build 0)  -->
<svg version="1.1" id="Layer_1" xmlns="http://www.w3.org/2000/svg" xmlns:xlink="http://www.w3.org/1999/xlink" x="0px" y="0px"
	 viewBox="0 0 607.1 96.5" enable-background="new 0 0 607.1 96.5" xml:space="preserve">
<g>
	<path d="M82,6.6l1.9,4.9l-27.2,71h6L73,53.9h27.3l11.1,28.7h10.7l-29.7-76H82z M74.6,49.5l11.5-31.3h0.4l12,31.3H74.6z M226,6.6
		h6.5l-22.2,76h-4.1l-21.9-58.3H184l-21.4,58.3h-3.9l-22.9-76h10.3L163,66.2h0.4l20.9-59.6h2.9l22.6,59.5h0.4L226,6.6z M486.8,6.6
		h6.2v76h-3.2l-48.9-60.7h-0.5v60.7h-6.2V14l-5.8-7.4h11.5l46.6,56.5h0.3V6.6z M536.4,78.9l39.5-0.9l-0.4,4.6h-49.3v-76h47.3v4.8
		l-37.1-1.1v30.8h29.8v4.4h-29.8V78.9z M289.8,41.3v-0.2c10.1-1.9,18.6-7.4,18.6-16.9c0-11.6-11.5-17.5-24.4-17.5h-22.8v76h21.2
		c19.8,0,29.9-9.4,29.9-21.5C312.2,50.6,303.1,43.5,289.8,41.3z M271.3,11.9c0,0,5.9-0.9,11.5-0.9c9.3,0,15,4.2,15,14.2
		c0,9.7-6.6,14.7-17.9,14.7h-8.6V11.9z M282.7,78.3c-4.2,0-9.6-0.5-11.4-0.8V44h9.7c13.7,0,20.2,6.1,20.2,18.2
		C301.3,71.9,295.3,78.3,282.7,78.3z M370.4,5.8c-19.5,0-36,17.2-36,38.8c0,21.8,16.9,38.7,36.8,38.7c19.8,0,36.3-16.9,36.3-38.7
		C407.5,23,390.6,5.8,370.4,5.8z M372,79.1c-13.8,0-26.5-13-26.5-36.6c0-21.4,11.1-32.6,24.3-32.6c13.8,0,26.7,13.3,26.7,36.8
		C396.4,68,385.8,79.1,372,79.1z M18.1,6.6h10.1v61.5c0,10.9-4.9,18.4-27.8,28.4L0,93.2c17-11,18.1-13,18.1-23.8V6.6z"/>
	<g>
		<path d="M588.4,9.5L588.4,9.5c0-5.2,4.1-9.5,9.4-9.5c5.3,0,9.4,4.2,9.4,9.4v0.1c0,5.1-4.1,9.4-9.4,9.4
			C592.5,18.8,588.4,14.6,588.4,9.5z M606,9.4L606,9.4c0-4.6-3.6-8.4-8.3-8.4c-4.7,0-8.3,3.8-8.3,8.4v0.1c0,4.6,3.6,8.3,8.3,8.3
			C602.4,17.8,606,14,606,9.4z M594.3,4.5h4.2c1.9,0,3.5,1,3.5,2.9c0,1.6-1,2.5-2.3,2.8l2.6,3.7h-1.9l-2.4-3.4h-2.3v3.4h-1.5V4.5z
			 M598.3,9.2c1.3,0,2.1-0.7,2.1-1.7c0-1.1-0.8-1.7-2.1-1.7h-2.5v3.4H598.3z"/>
	</g>
</g>
</svg>
