<?xml version="1.0" encoding="utf-8"?>
<!-- Generator: Adobe Illustrator 18.1.1, SVG Export Plug-In . SVG Version: 6.00 Build 0)  -->
<svg version="1.1" id="Layer_1" xmlns="http://www.w3.org/2000/svg" xmlns:xlink="http://www.w3.org/1999/xlink" x="0px" y="0px"
	 viewBox="0 0 786.7 191.7" enable-background="new 0 0 786.7 191.7" xml:space="preserve">
<path fill="#04AFEE" d="M163.5,163.1c-1.9,0.5-3-1.1-4.3-1.9c-19.4-12.5-38.8-25-58.2-37.5c-1.5-1-3.1-1.9-4.5-2.8
	c-2.3,0.4-3.8,1.8-5.4,2.8c-19.4,12.5-38.8,25-58.2,37.5c-1.3,0.8-2.4,2.4-4.3,1.9l0,0c1.2-3.9,3.9-6.9,6-10.2
	c11.5-17.9,23.1-35.7,34.6-53.6c0.7-1.1,1.6-2.1,1.9-3.9c-2.4-3.7-4.8-7.6-7.4-11.5C53,67.5,42.2,50.9,31.5,34.3
	c-1.1-1.7-2-3.4-3-5.1l0.3-0.3c3.1,0.4,5.3,2.7,7.7,4.3c18.6,11.9,37.2,24,55.8,36c1.1,0.7,2.2,1.4,3.7,2.3
	c22.3-14.4,44.6-28.7,66.9-43.1c0.3,0.2,0.6,0.4,0.9,0.7c-14.1,22.3-28.8,44.4-43,66.7c1.2,3,3,5.4,4.6,7.9
	c12,18.6,24.1,37.1,36.1,55.7C162.3,160.5,163.6,161.5,163.5,163.1L163.5,163.1z"/>
<path fill="#0C0C0C" d="M243.4,114.9c0,16.7,0,33.4,0,50.3c-3.5,1.3-6.8,0.4-10.3,0.7c0-46.3,0-92.1,0-137.9c1.3-1,2.7-0.6,4-0.6
	c15.3,0.2,30.6-0.6,45.9,0.5c8.4,0.6,16.3,2.9,23.8,7c25.4,13.9,25.2,50.5,6.3,66.2c-11.3,9.4-24.6,12.9-38.9,13.2
	c-8.5,0.1-17,0-25.5,0C247,114.4,245.3,114.1,243.4,114.9z M243.7,37.1c-0.8,7.8-0.5,63.7,0.3,67.6c12.4-0.3,24.9,0.5,37.3-0.5
	c5.5-0.5,10.8-2,15.8-4.4c12.7-6.1,19.9-17.6,19-30.7c-1-14.8-8.4-24.3-22.5-29.1c-2.8-1-5.8-1.7-8.7-2
	C271.2,36.3,257.6,37.7,243.7,37.1z"/>
<path fill="#0A0A0A" d="M342,80.3c-1.1-2.5-2.2-5-3.4-8c6.4-3.4,13.1-5.7,20.1-7.2c9.2-2,18.5-2.4,27.8-0.5
	c18.5,3.7,29.6,16.4,29.9,35.3c0.4,21.5,0.1,43,0.1,64.4c0,0.3-0.2,0.6-0.3,1.2c-2.8,0.9-5.7,0.3-8.9,0.3c-1.2-4.8,0-9.6-0.7-14.4
	c-1.6-0.8-2,0.8-2.6,1.5c-14.4,15.5-37.9,19.8-56.8,10.3c-11.2-5.6-17.6-14.5-17.5-27.4c0.1-13,6.6-22,18.1-27.5
	c10.5-5,21.8-5.5,33.2-4.9c8.5,0.4,16.8,1.8,25.1,3.8c3.8-17-7.1-31.9-25-34c-11.9-1.4-23.2,0.6-34.1,5.4
	C345.3,79.3,344,80.5,342,80.3z M406.8,116.7c-15.3-3.7-30.5-6.1-46-3.3c-3.4,0.6-6.7,1.9-9.8,3.6c-7.6,4.4-11.4,10.9-11,19.8
	c0.5,9.4,5.7,15.6,14,18.9c15.3,6.1,29.7,3.6,42.7-6.5c5-3.9,8.3-9.2,9.5-15.4C407.4,128.3,407.1,122.6,406.8,116.7z"/>
<path fill="#080808" d="M786.5,120.6c-26.9,0-53.7,0-80.4,0c-1.4,12.3,7.7,27.7,20,34.2c16,8.5,33.2,4.9,51-10.6
	c1.6,0.3,2.4,1.6,3.6,2.6c1,0.8,1.9,1.8,3.1,2.9c-10,11.5-22.3,17.8-37.4,18.5c-29.9,1.5-50.8-22.3-51.1-49.7
	c-0.1-15.9,4.4-29.8,16-41.1c18.7-18.2,53.6-17,68.4,10C785.3,97.6,787.3,108.5,786.5,120.6z M776.1,111.8
	c-0.8-23.4-16.2-38.8-37.2-37.7c-17.6,1-34.3,20-32.8,37.7C729.2,111.8,752.5,111.8,776.1,111.8z"/>
<path fill="#0A0A0A" d="M658.8,142.8c2.4,2.1,4.6,3.6,6.1,5.8c-16.8,22.9-50.6,26.2-72.2,7.3c-22.5-19.8-23.4-55.7-1.8-76.6
	c21-20.4,54.9-18.5,73.1,3.9c-2.2,2.1-4.4,4.2-6.8,6.5c-1.3-0.6-2.5-2.3-4-3.6c-14.2-12.7-31-15.5-46-7.4c-15,8-23.7,25.8-21.2,43.5
	c2.8,19.7,16.2,33.9,34.9,36.5c12.4,1.7,22.9-2.6,32.1-10.6C655,146.5,656.7,144.7,658.8,142.8z"/>
<path fill="#0B0B0B" d="M500,33.1c3.4,0,6.3,0,9.6,0c0,10.6,0,21,0,31.9c12,0,23.5,0,35.3,0c0.5,3.1,0.4,5.7,0.1,8.9
	c-11.6,0-23.2,0-34.3,0c-1.3,1.7-1,3.1-1,4.4c0,19.5,0,39,0,58.4c0,1.8,0.1,3.7,0.3,5.5c1.3,10,7.2,15.3,17.3,16
	c5.8,0.3,11.2-0.9,16.8-3.2c0.8,3.2,0.4,6,0.2,9.2c-10,4.2-20,4.8-30.1,0.6c-8-3.4-12.3-9.9-13.8-18.3c-0.5-2.6-0.7-5.3-0.7-8
	c0-34.1,0-68.3,0-102.4C499.9,35.3,499.9,34.5,500,33.1z"/>
<path fill="#0A0A0A" d="M438.5,165.8c-3.5,0-6.3,0-9.5,0c0-33.4,0-66.7,0-100.4c3,0,6,0,9.5,0c0,8.6,0,17,0,25.4
	c5.9-8,12.9-14.4,21.6-18.8c8.6-4.3,17.7-6.6,27.4-6.7c0.9,3,0.3,5.8,0.5,8.7c-4.1,0.6-7.9,0.9-11.6,1.7
	c-22.7,5.2-37.6,24-37.9,47.7c-0.1,12.3,0,24.6,0,37C438.5,162,438.5,163.6,438.5,165.8z"/>
<path fill="#0B0B0B" d="M675.7,22.3c3.1-0.7,6.1-0.2,9.3-0.4c0,48,0,95.6,0,143.4c-1.4,1.1-3.1,0.5-4.7,0.6
	c-1.5,0.1-2.9-0.1-4.6-0.2C675.7,117.7,675.7,70,675.7,22.3z"/>
<path fill="#0A0A0A" d="M565.3,165.7c-3.3,0-6.2,0-9.4,0c0-33.5,0-66.7,0-100.3c3.1-0.7,6.1-0.2,9.4-0.3
	C565.3,98.8,565.3,132,565.3,165.7z"/>
<path fill="#09B0EF" d="M84.7,141.6c3.8-2.5,7.3-4.8,11.3-7.4c3.7,2.4,7.4,4.8,11.3,7.3c-3.6,16.8-7.2,33.5-10.7,50.1
	c-0.3,0-0.7,0.1-1,0.1C92,175.2,88.4,158.7,84.7,141.6z"/>
<path fill="#08B0EF" d="M0,95.5c16.7-3.6,33.5-7.2,50.1-10.7c3,3.7,5.2,7.4,7.5,11.3c-2.4,3.6-4.7,7.2-7.3,11.2
	c-16.9-3.6-33.6-7.2-50.4-10.7C0,96.2,0,95.8,0,95.5z"/>
<path fill="#08B0EF" d="M192,96.5c-16.7,3.6-33.3,7.1-50,10.7c-3-3.5-5.1-7.3-7.6-11.3c2.3-3.5,4.6-7.1,7.2-11.2
	c16.8,3.6,33.6,7.2,50.4,10.7C192,95.8,192,96.2,192,96.5z"/>
<path fill="#08B0EF" d="M96.5,0c3.6,16.7,7.2,33.4,10.8,50.2c-3.4,2.8-7.2,4.9-11,7.3c-4.2-1.9-7.8-4.5-11.5-7.2
	c3.6-16.8,7.2-33.5,10.8-50.2C95.8,0.1,96.2,0,96.5,0z"/>
<path fill="#0E0E0E" d="M555.7,49.1c0-5.8,0-10.7,0-15.8c3.3-0.6,6.4-0.6,9.6,0c0,5.1,0,10.1,0,15.3
	C562.3,49.7,559.2,48.8,555.7,49.1z"/>
<path fill="#04AFEE" d="M28.5,29.2c-0.2-0.2-0.5-0.4-0.7-0.5c0.1-0.1,0.2-0.2,0.4-0.3c0.4-0.1,0.6,0.1,0.6,0.5L28.5,29.2z"/>
<path fill="#04AFEE" d="M28.5,163.1c0.2,0.4,0,0.8-0.2,0.7C27.4,163.3,28.2,163.3,28.5,163.1L28.5,163.1z"/>
<path fill="#04AFEE" d="M163.5,163.2c0.2,0.2,0.5,0.3,0.7,0.5C163.5,164,163.4,163.7,163.5,163.2L163.5,163.2z"/>
</svg>
