<?xml version="1.0" encoding="utf-8"?>
<!-- Generator: Adobe Illustrator 16.0.0, SVG Export Plug-In . SVG Version: 6.00 Build 0)  -->
<!DOCTYPE svg PUBLIC "-//W3C//DTD SVG 1.1//EN" "http://www.w3.org/Graphics/SVG/1.1/DTD/svg11.dtd">
<svg version="1.1" id="Layer_1" xmlns="http://www.w3.org/2000/svg" xmlns:xlink="http://www.w3.org/1999/xlink" x="0px" y="0px"
	 width="312.922px" height="78.417px" viewBox="0 0 312.922 78.417" enable-background="new 0 0 312.922 78.417"
	 xml:space="preserve">
<g>
	<path d="M309.85,59.149c-0.186-0.103-0.481-0.154-0.887-0.154h-0.627v1.507h0.662c0.311,0,0.543-0.031,0.699-0.093
		c0.286-0.114,0.429-0.331,0.429-0.65C310.126,59.456,310.035,59.253,309.85,59.149L309.85,59.149z M309.059,58.495
		c0.516,0,0.894,0.05,1.135,0.149c0.43,0.179,0.645,0.53,0.645,1.054c0,0.372-0.135,0.646-0.405,0.821
		c-0.145,0.093-0.345,0.159-0.602,0.201c0.325,0.052,0.563,0.188,0.714,0.407s0.227,0.435,0.227,0.644v0.305
		c0,0.096,0.003,0.199,0.01,0.309c0.007,0.11,0.02,0.183,0.036,0.217l0.026,0.052h-0.687c-0.004-0.014-0.007-0.028-0.01-0.042
		c-0.004-0.014-0.007-0.029-0.011-0.046l-0.016-0.134v-0.329c0-0.479-0.131-0.797-0.392-0.951c-0.155-0.089-0.427-0.134-0.816-0.134
		h-0.577v1.636h-0.732v-4.158H309.059L309.059,58.495z M306.83,58.283c-0.633,0.636-0.948,1.405-0.948,2.306
		c0,0.908,0.314,1.683,0.943,2.322c0.633,0.64,1.402,0.959,2.307,0.959s1.673-0.319,2.306-0.959s0.95-1.414,0.95-2.322
		c0-0.9-0.317-1.67-0.95-2.306c-0.636-0.64-1.405-0.96-2.306-0.96C308.233,57.323,307.465,57.644,306.83,58.283L306.83,58.283z
		 M311.814,63.272c-0.74,0.742-1.634,1.114-2.683,1.114c-1.05,0-1.941-0.372-2.678-1.114c-0.732-0.74-1.099-1.636-1.099-2.688
		c0-1.042,0.369-1.933,1.108-2.672c0.736-0.736,1.625-1.104,2.668-1.104c1.049,0,1.942,0.368,2.683,1.104
		c0.739,0.735,1.108,1.626,1.108,2.672C312.922,61.633,312.553,62.529,311.814,63.272L311.814,63.272z"/>
	<path d="M246.638,64.957c-2.522-0.666-10.749-3.741-10.749-15.401V-0.001h4.472v49.557c0,8.23,5.187,10.488,7.417,11.076
		L246.638,64.957L246.638,64.957z"/>
	<path d="M276.062,17.926c-1.209,0-2.434,0.105-3.664,0.322c-10.688,1.886-18.079,11.57-17.351,22.166l41.234-7.27
		C293.683,24.113,285.351,17.926,276.062,17.926L276.062,17.926z M301.387,42.166c-1.401,11.174-9.802,19.996-20.9,21.954
		c-1.492,0.264-2.977,0.392-4.442,0.392c-12.149,0-22.947-8.729-25.13-21.097c-2.442-13.862,6.846-27.127,20.706-29.571
		c13.857-2.463,27.126,6.847,29.572,20.705l0.388,2.204l-45.755,8.065c2.938,10.207,13.194,16.774,23.884,14.897
		c8.697-1.536,15.386-8.18,17.023-16.741L301.387,42.166L301.387,42.166z"/>
	<path d="M222.112,39.209c0,11.415-9.254,20.67-20.67,20.67s-20.67-9.255-20.67-20.67c0-11.416,9.254-20.671,20.67-20.671
		S222.112,27.793,222.112,39.209L222.112,39.209z M226.52,39.203c0-13.827-11.245-25.071-25.072-25.071
		c-8.52,0-16.064,4.27-20.598,10.797V0h-4.475v39.203c0,13.827,11.245,25.072,25.072,25.072S226.52,53.03,226.52,39.203
		L226.52,39.203z"/>
	<path d="M163.378,39.209c0,11.415-9.254,20.67-20.67,20.67c-11.416,0-20.67-9.255-20.67-20.67c0-11.416,9.254-20.671,20.67-20.671
		C154.125,18.538,163.378,27.793,163.378,39.209L163.378,39.209z M167.786,39.203c0-13.827-11.244-25.071-25.071-25.071
		c-8.52,0-16.064,4.27-20.598,10.797V0h-4.474v39.203c0,13.827,11.245,25.072,25.072,25.072S167.786,53.03,167.786,39.203
		L167.786,39.203z"/>
	<path d="M25.066,59.878c-11.416,0-20.67-9.254-20.67-20.67s9.254-20.67,20.67-20.67c11.416,0,20.67,9.254,20.67,20.67
		S36.481,59.878,25.066,59.878L25.066,59.878z M25.072,14.142C11.245,14.142,0,25.387,0,39.213v39.204h4.473v-24.93
		c4.535,6.527,12.079,10.798,20.599,10.798c13.827,0,25.071-11.245,25.071-25.072C50.143,25.387,38.898,14.142,25.072,14.142
		L25.072,14.142z"/>
	<path d="M83.427,17.929c-1.208,0-2.432,0.105-3.664,0.321c-10.687,1.887-18.079,11.571-17.349,22.167l41.233-7.27
		C101.049,24.116,92.717,17.929,83.427,17.929L83.427,17.929z M108.753,42.168c-1.401,11.174-9.801,19.997-20.9,21.955
		c-1.491,0.264-2.977,0.391-4.442,0.391c-12.15,0-22.948-8.729-25.129-21.097c-2.443-13.862,6.846-27.127,20.706-29.571
		c13.856-2.462,27.126,6.847,29.572,20.705l0.388,2.204l-45.755,8.066c2.938,10.207,13.194,16.773,23.884,14.896
		c8.697-1.535,15.386-8.18,17.023-16.74L108.753,42.168L108.753,42.168z"/>
</g>
</svg>
