<?xml version="1.0" encoding="utf-8"?>
<!-- Generator: Adobe Illustrator 18.1.1, SVG Export Plug-In . SVG Version: 6.00 Build 0)  -->
<svg version="1.1" id="Layer_1" xmlns="http://www.w3.org/2000/svg" xmlns:xlink="http://www.w3.org/1999/xlink" x="0px" y="0px"
	 viewBox="0 0 2211.9 640.2" enable-background="new 0 0 2211.9 640.2" xml:space="preserve">
<path fill="#F44B43" d="M1597.4,414.4c16.2-0.1,32.3,0.3,48.5-0.4c7.6-0.3,15.3-1,22.7-2.9c9.3-2.4,12.3-6.2,12.5-15.9
	c0.1-5.2,0-10.3,0-15.5c-0.1-7.3-2.3-10-9.6-11.6c-6.4-1.4-12.9-1.6-19.3-1.8c-23.8-0.6-47.6,0.6-71.4,1.1
	c-14.3,0.3-28.6,0.3-42.9-0.5c-10.5-0.6-20.8-2.3-30.8-5.9c-17.2-6.2-28.4-18.1-31.7-36.1c-2.9-16-2.7-32.2,0.1-48.2
	c3.2-18.5,14.6-30.1,32.4-35.7c11.3-3.6,23-5.2,34.8-5.9c31.8-1.8,63.6-1.2,95.4-0.7c16.4,0.3,32.9,1.5,48.8,6.5
	c14.7,4.6,26.3,12.7,31.5,28c2,5.9,2.9,12,3.2,18.1c0.3,5.3,0.1,10.7,0.3,16c0.1,2.4-0.8,3.2-3.2,3.1c-11.7-0.1-23.3-0.1-35,0
	c-2.1,0-2.9-0.7-2.9-2.9c0-4.2,0.2-8.3-0.4-12.5c-0.7-5-3.4-8.1-7.9-10.1c-5.1-2.3-10.5-3-16-3.7c-8.3-1.1-16.6-1.4-24.9-1.4
	c-28,0.1-56-0.5-84,0.4c-7.5,0.2-14.9,0.9-22.2,3c-7.8,2.2-10.6,5.9-10.6,14.1c0,5.8-0.1,11.7,0,17.5c0.1,6.5,2.5,9.8,8.5,12
	c6,2.2,12.3,3,18.6,3.3c23.5,1,47,0.5,70.4-0.2c17.2-0.5,34.3-0.7,51.4-0.7c7.7,0,15.3,1.3,22.6,3.5c20.5,6,32.8,19.6,35,40.8
	c1.5,14.4,1.4,28.9-1.3,43.3c-3.8,20.3-16.5,32-35.8,37.3c-10.1,2.8-20.5,4.3-31,4.9c-32.9,1.9-65.9,1.2-98.9,0.7
	c-14.8-0.2-29.6-1.6-43.9-5.6c-17.7-5-30.4-15.3-35.4-33.7c-1.8-6.4-2.7-13.1-3-19.7c-0.4-7-0.1-14-0.3-21c0-2.2,0.4-3.3,3-3.3
	c11.7,0.1,23.3,0.1,35,0c2.5,0,3.1,0.9,3.1,3.2c-0.1,6-0.1,12,0.1,18c0.4,10.7,3.7,14.8,14.1,17.7c6.8,1.8,13.7,2.5,20.7,2.8
	C1564.5,414.6,1581,414.3,1597.4,414.4z"/>
<path fill="#F44B43" d="M1311.2,455.6c-13.8,0-27.7,0.4-41.5-0.1c-16.1-0.5-32.2-1.7-47.8-6.4c-20.8-6.4-31.7-20.7-34.8-41.8
	c-1.6-10.6-0.9-21.3-1.2-31.9c-0.1-2.5,0.9-3.1,3.2-3.1c11.5,0.1,23,0.1,34.5,0c2.7,0,3.4,1.1,3.3,3.6c-0.1,6-0.1,12,0,18
	c0.2,10.1,3.7,14.4,13.4,17.1c6.8,1.9,13.8,2.7,20.7,2.8c33.2,0.7,66.3,0.7,99.5,0c7.5-0.2,14.9-1,22.2-2.9
	c8.8-2.4,12.1-6.6,12.2-15.7c0-5.2,0-10.3,0-15.5c0-7.3-2.3-10.1-9.6-11.7c-6.2-1.4-12.6-1.7-18.8-1.8c-24-0.6-48,0.6-71.9,1.1
	c-17.3,0.3-34.6,0.4-51.8-1.4c-8.8-0.9-17.4-3-25.5-6.5c-16.8-7.2-26.1-20.3-28.7-38c-2.1-14.4-1.9-28.9,0.5-43.3
	c3.3-20.6,15.9-32.6,35.4-38.1c10.3-2.9,20.8-4.4,31.5-5c32.1-1.8,64.3-1.2,96.4-0.7c15.1,0.2,30.2,1.4,45,5.5
	c3.8,1.1,7.6,2.3,11.3,3.9c14.3,6.2,22.5,17.2,25.5,32.3c1.8,9.1,1,18.3,1.2,27.4c0,1.9-0.7,2.6-2.6,2.6c-11.8,0-23.7-0.1-35.5,0
	c-2.1,0-3-0.7-2.9-2.9c0.1-3.3-0.1-6.7,0.1-10c0.3-6.6-3.2-10.7-9-13c-4.8-1.9-9.9-2.6-15.1-3.3c-8.3-1-16.6-1.3-24.9-1.3
	c-27.8,0-55.7-0.5-83.5,0.3c-7.8,0.2-15.6,1-23.2,3.2c-5.9,1.7-9.7,5.2-10.1,12c-0.3,6.8-0.4,13.6,0,20.4c0.4,6.3,4,9.6,9.5,11.4
	c5.9,1.9,12,2.7,18.2,3c20.7,0.9,41.3,0.4,62-0.1c19.3-0.5,38.6-1,57.9-0.8c10.4,0.1,20.5,1.8,30.2,5.7
	c15.8,6.4,25.6,18.1,28.2,34.7c2.6,16.8,2.5,33.9-1.5,50.6c-3.9,16.3-14.1,26.7-29.8,32.1c-12.6,4.4-25.6,5.8-38.7,6.8
	C1346.8,456.3,1329,455.8,1311.2,455.6z"/>
<path fill="#F44B43" d="M1876,237c31,0,62,0,93,0c1.2,0,2.3,0,3.5,0c1.6-0.1,2.4,0.6,2.4,2.3c0,12,0,24,0,36c0,2-0.8,2.7-2.7,2.6
	c-1.2-0.1-2.3,0-3.5,0c-52.7,0-105.3,0-158,0c-1.2,0-2.3,0.1-3.5,0c-2.9-0.4-3.7,0.9-3.6,3.7c0.1,10,0,20,0.1,30
	c0,4.6,0,4.6,4.6,4.6c27.5,0,55,0,82.5,0c15.8,0,31.7,0,47.5,0c4.7,0,4.7,0,4.7,4.5c0,10.7,0,21.3,0,32c0,4.9,0.4,4.6-4.6,4.6
	c-41.8,0-83.6,0-125.5,0c-9.3,0-9.3,0-9.3,9c0,13.7,0,27.3,0,41c0,4.8,0,4.8,4.9,4.8c53.2,0,106.3,0,159.5,0c1.2,0,2.4,0.1,3.5,0
	c2.9-0.4,3.6,0.8,3.6,3.6c-0.1,11.2-0.2,22.3,0,33.5c0.1,3.2-1,3.9-4,3.8c-7.5-0.2-15-0.1-22.5-0.1c-54.7,0-109.3-0.1-164,0.1
	c-14.3,0-22.1-7.4-22.3-22.1c0-0.7,0-1.3,0-2c0-56.2,0-112.3,0-168.5c0-2.5,0.2-5,0.6-7.5c1.5-9.7,8.3-15.7,18.1-15.9
	c7.2-0.1,14.3,0,21.5,0C1827,237,1851.5,237,1876,237z"/>
<path fill="#F44B43" d="M1055,237c31,0,62,0,93,0c1.2,0,2.3,0.1,3.5,0c1.8-0.1,2.7,0.5,2.7,2.5c-0.1,11.8-0.1,23.7,0,35.5
	c0,2.1-0.7,3.1-2.9,2.9c-1.2-0.1-2.3,0-3.5,0c-52.3,0-104.6,0-157,0c-1,0-2,0-3,0c-4.6,0-4.7,0-4.7,4.5c0,9.7,0,19.3,0,29
	c0,4.7,0,4.7,5,4.7c42.7,0,85.3,0,128,0c1.2,0,2.3,0.1,3.5,0c2.1-0.2,3.1,0.7,3,2.9c0,11.8,0,23.7,0,35.5c0,1.9-0.6,2.8-2.6,2.7
	c-1.2-0.1-2.3,0-3.5,0c-42.3,0-84.6,0-127,0c-1.2,0-2.3,0.1-3.5,0c-2.1-0.2-3,0.6-3,2.8c0.1,16.5,0.1,33,0,49.5c0,2,0.7,2.7,2.6,2.6
	c1.2-0.1,2.3,0,3.5,0c53,0,106,0,159,0c1.2,0,2.3,0.1,3.5,0c2.1-0.2,3,0.6,3,2.8c-0.1,11.7-0.1,23.3,0,35c0,2.4-1,3.3-3.3,3.1
	c-0.7-0.1-1.3,0-2,0c-62.2,0-124.3,0-186.5,0c-9.9,0-16.8-4.5-19.5-12.6c-0.8-2.5-1.3-5.1-1.3-7.8c0-58.5,0-117,0-175.5
	c0-12.7,7.5-20,20.4-20C993.4,237,1024.2,237,1055,237z"/>
<path fill="#F44B43" d="M796.5,237c36.2,0,72.3,0,108.5,0c1.2,0,2.3,0.1,3.5,0c1.8-0.1,2.7,0.5,2.7,2.5c-0.1,11.8-0.1,23.7,0,35.5
	c0,2.1-0.7,2.9-2.9,2.9c-5.3-0.1-10.7,0-16,0c-23.3,0-46.7,0-70,0c-6,0-5.4-0.7-5.4,5.3c0,53.8,0,107.7,0,161.5c0,8.2,0,8.2-8.5,8.2
	c-9.2,0-18.3,0-27.5,0c-5.4,0-5,0.5-5-5.2c0-27,0-54,0-81c0-27.7,0-55.3,0-83c0-1.2-0.1-2.3,0-3.5c0.1-1.8-0.8-2.4-2.4-2.3
	c-1.2,0-2.3,0-3.5,0c-27.7,0-55.3,0-83,0c-5.2,0-4.9,0.6-4.9-4.7c0-10.3,0-20.7,0-31c0-5.7-0.6-5.1,5-5.1
	C723.5,237,760,237,796.5,237z"/>
<path fill="#F44B43" d="M2010.1,337c0-31.7,0-63.3,0-95c0-5.5-0.6-5,5.1-5c10.5,0,21,0,31.5,0c4.7,0,4.2-0.1,4.2,4.4c0,21,0,42,0,63
	c0,33.8,0,67.6,0,101.5c0,1.2,0.1,2.3,0,3.5c-0.1,1.8,0.4,2.9,2.5,2.7c1.2-0.1,2.3,0,3.5,0c49.5,0,99,0,148.4,0c1,0,2,0.1,3,0
	c2.4-0.2,3.6,0.4,3.5,3.2c-0.2,11.5-0.1,23,0,34.5c0,2.3-0.7,3.5-3.1,3.2c-0.7-0.1-1.3,0-2,0c-58.8,0-117.6,0-176.4,0
	c-5.4,0-10.2-1.4-14.2-5.1c-4.6-4.3-6-9.8-6-15.8C2010.2,400.3,2010.1,368.6,2010.1,337z"/>
<path fill="#F44B43" d="M293.4,350.7c0-35.7,0-71.3,0-107c0-1.3,0-2.7,0-4c0-1.9,0.9-2.7,2.8-2.6c1,0.1,2,0,3,0
	c38.2,0,76.3,0,114.5,0c0.8,0,1.7,0.1,2.5,0c2.1-0.2,3.1,0.6,2.9,2.8c-0.1,2.3,0,4.7,0,7c0,15.2,0,30.3,0,45.5c0,4.6,0,4.6-4.5,4.6
	c-24.8,0-49.7,0-74.5,0c-1.2,0-2.3,0.1-3.5,0c-1.9-0.1-2.8,0.6-2.6,2.5c0.1,1.3,0,2.7,0,4c0,51.5,0,103,0,154.4c0,1.2-0.1,2.3,0,3.5
	c0.3,2.6-0.8,3.5-3.4,3.4c-9.3-0.1-18.7,0-28,0c-9.2,0-9.2,0-9.2-9.2C293.4,420.7,293.4,385.7,293.4,350.7z"/>
<path fill="#F44B43" d="M555.2,313.8c0,42.3,0.1,84.7-0.1,127c0,4.7,1,7,5.4,9.3c13.4,7,20.4,22.8,17.2,37.2
	c-3.4,15.4-15.3,26.1-30.7,27.8c-17.8,2-32.9-9.6-37.4-25c-4.7-16.1,2.7-33.4,17.8-40.9c3.2-1.6,4.7-3.1,3.7-6.7
	c-0.4-1.6-0.1-3.3-0.1-5c0-79.5,0-159,0.1-238.5c0-3.7-0.8-5.9-4.3-7.9c-47.2-28-94.4-56.2-141.5-84.4c-2.7-1.6-5.4-3.3-6.9-6.3
	c-2.3-4.8-1.5-10,2.2-13.8c3.9-4,9.3-5.1,14.2-2.4c6.3,3.4,12.4,7.2,18.5,10.9c45.7,27.3,91.4,54.6,137.2,81.8
	c3.4,2,4.7,4.1,4.7,8.2C555.1,228.1,555.2,270.9,555.2,313.8z M543,469.9c-5.9,0.1-10.9,5.2-10.6,10.9c0.2,5.7,5,10.3,10.8,10.3
	c5.8,0,10.8-4.9,10.8-10.7C554,474.5,549,469.8,543,469.9z"/>
<path fill="#F44B43" d="M283.2,351.5c0,35.6,0,71.3,0,106.9c0,1.2-0.1,2.3,0,3.5c0.2,2.1-0.6,3-2.8,2.9c-11.5-0.1-23-0.1-34.5,0
	c-1.8,0-2.8-0.6-2.7-2.6c0.1-1.3,0-2.7,0-4c0-51.3,0-102.6,0-153.9c0-1,0-2,0-3c0-4.4,0-4.4-4.3-4.4c-9.5,0-19,0-28.5,0
	c-15.7,0-31.3,0-47,0c-4.2,0-4.3,0-4.3-4.4c0-17,0-34,0-51c0-4.4,0-4.5,4.2-4.5c38.5,0,77,0,115.4,0c4.3,0,4.3,0,4.3,4.9
	C283.2,278.5,283.2,315,283.2,351.5z"/>
<path fill="#F44B43" d="M69.9,481.2c0,1.2,0.1,2.3,0,3.5c-0.1,1.3,0.3,2,1.6,2.7c14.2,7.3,27.6,16,41.5,24
	c51,29.4,102,58.9,153,88.3c6.8,3.9,13.6,7.7,20.3,11.7c2.1,1.3,3.6,1.3,5.8,0.1c32.7-19,65.4-37.8,98.1-56.7
	c10.7-6.2,21.4-12.2,32-18.5c7.8-4.7,16.9-0.1,18.6,7.5c1.2,5.4-1.1,10.6-6.6,13.8c-11.5,6.7-23,13.4-34.5,20
	c-35.3,20.4-70.6,40.7-105.9,61.2c-3.2,1.9-5.6,2.1-9,0.2c-67.3-39.1-134.8-78-202.2-117c-7.6-4.4-15.2-9-22.6-13.8
	c-1.8-1.1-2.6-0.6-3.8,0.4c-5.3,3.9-11.2,6.2-17.9,6.9C19.5,517,4.8,504,1.1,489.2c-4.9-19.3,7.3-39.1,26.4-43.1
	c20.3-4.2,39.4,9.2,42.3,29.5c0.3,1.8,0.2,3.7,0.3,5.5C70,481.2,70,481.2,69.9,481.2z M35.2,491.1c5.9-0.1,10.8-5.2,10.6-10.9
	c-0.2-5.8-5.3-10.4-11.3-10.3c-5.6,0.2-10.5,5.1-10.4,10.6C24.2,486.1,29.4,491.2,35.2,491.1z"/>
<path fill="#F44B43" d="M23,259.9c0-25.2,0.1-50.3-0.1-75.5c0-3.2,0.9-5,3.7-6.7C95,137.1,163.2,96.2,231.5,55.5
	c7.1-4.3,14-9.1,21.6-12.4c2.3-1,1.2-2.2,1.1-3.6c-1.1-13.7,3.4-25,14.8-32.9c11.5-7.9,23.9-8.9,36.3-2.3
	c12.1,6.5,18.5,16.9,18.6,30.8c0.1,13.5-6,23.8-17.5,30.4c-11.7,6.7-23.9,6.5-35.6-0.5c-3.3-2-5.1-2.1-8.5,0
	c-12.5,8-25.3,15.4-38,23c-54,32.3-108,64.5-161.9,96.7c-4,2.4-7.9,4.9-12,7.1c-2.6,1.3-3.5,3-3.4,5.9c0.2,6.8,0.1,13.7,0.1,20.5
	c0,38,0,76,0,113.9c0,1.8,0,3.7-0.1,5.5c-0.6,6.3-5.7,10.5-12.4,10.4c-6.3-0.1-11.3-4.6-11.5-10.8c-0.2-6.3-0.1-12.7-0.1-19
	C23,298.9,23,279.4,23,259.9z M299.9,35.2c0-5.7-5.3-10.9-11-10.7c-5.5,0.2-10.5,5.2-10.5,10.7c0,5.9,4.8,10.8,10.8,10.8
	C295,46,299.9,41.1,299.9,35.2z"/>
</svg>
