<?xml version="1.0" encoding="utf-8"?>
<!-- Generator: Adobe Illustrator 18.1.1, SVG Export Plug-In . SVG Version: 6.00 Build 0)  -->
<svg version="1.1" xmlns="http://www.w3.org/2000/svg" xmlns:xlink="http://www.w3.org/1999/xlink" x="0px" y="0px"
	 viewBox="0 0 404.5 162.9" enable-background="new 0 0 404.5 162.9" xml:space="preserve">
<g id="Layer_1">
</g>
<g id="Layer_2">
	<g>
		<path fill="#00BBDE" d="M401.6,154.5c0-3.9-1.8-5.9-5.5-5.9h-2.3v11.8h1.9C399.7,160.5,401.6,158.5,401.6,154.5 M404.4,154.4
			c0,2.7-0.7,4.8-2.2,6.2c-1.5,1.4-3.6,2.1-6.5,2.1h-4.6v-16.3h5c2.6,0,4.6,0.7,6.1,2.1C403.7,149.9,404.4,151.9,404.4,154.4
			 M383.7,162.7h-3.3l-8-13h-0.1l0.1,0.7c0.1,1.4,0.2,2.6,0.2,3.8v8.5h-2.4v-16.3h3.2l8,12.9h0.1c0-0.2,0-0.8-0.1-1.9
			c0-1.1-0.1-1.9-0.1-2.5v-8.5h2.4V162.7z M359.6,155.9l-1.5-4.4c-0.1-0.3-0.3-0.8-0.5-1.4s-0.3-1.1-0.4-1.4c-0.2,0.9-0.5,1.9-0.9,3
			l-1.5,4.2H359.6z M361.9,162.7l-1.6-4.5H354l-1.6,4.5h-2.8l6.1-16.4h2.9l6.1,16.4H361.9z M336.2,155.3v5.2h2.8
			c1.1,0,2-0.2,2.5-0.6c0.6-0.4,0.9-1.1,0.9-2c0-0.8-0.3-1.5-0.9-1.9c-0.6-0.4-1.5-0.6-2.6-0.6H336.2z M336.2,153.2h2.6
			c1.1,0,1.9-0.2,2.4-0.5c0.5-0.4,0.8-1,0.8-1.8c0-0.8-0.3-1.3-0.8-1.7c-0.6-0.3-1.4-0.5-2.6-0.5h-2.3V153.2z M333.5,146.4h4.8
			c2.2,0,3.9,0.3,4.9,1c1,0.7,1.5,1.7,1.5,3.1c0,1-0.2,1.7-0.7,2.4c-0.5,0.6-1.2,1-2.1,1.2v0.1c1.1,0.2,2,0.6,2.5,1.3
			c0.5,0.6,0.8,1.5,0.8,2.6c0,1.5-0.5,2.6-1.5,3.4c-1,0.8-2.4,1.2-4.3,1.2h-5.9V146.4z M316.3,162.7l-4.7-13.6h-0.1
			c0.1,2,0.2,3.9,0.2,5.7v7.9h-2.4v-16.3h3.8l4.5,13h0.1l4.7-13h3.8v16.3h-2.6v-8.1c0-0.8,0-1.9,0.1-3.2c0-1.3,0.1-2.1,0.1-2.4h-0.1
			l-4.9,13.6H316.3z M294.1,154h1.9c1.2,0,2.1-0.2,2.7-0.7c0.6-0.5,0.8-1.1,0.8-2.1c0-0.9-0.3-1.6-0.9-2c-0.6-0.4-1.5-0.6-2.7-0.6
			h-1.8V154z M294.1,156.2v6.5h-2.7v-16.3h4.6c2.1,0,3.7,0.4,4.7,1.2c1,0.8,1.5,2,1.5,3.6c0,2-1.1,3.5-3.2,4.3l4.6,7.2h-3l-3.9-6.5
			H294.1z M280.9,155.9l-1.5-4.4c-0.1-0.3-0.3-0.8-0.5-1.4c-0.2-0.6-0.3-1.1-0.4-1.4c-0.2,0.9-0.5,1.9-0.9,3l-1.5,4.2H280.9z
			 M283.2,162.7l-1.6-4.5h-6.2l-1.6,4.5h-2.8l6.1-16.4h2.9l6.1,16.4H283.2z M248.4,162.7v-16.3h2.7v14h6.9v2.3H248.4z M229.2,154.5
			c0,2,0.4,3.5,1.2,4.6c0.8,1,2,1.6,3.6,1.6c1.6,0,2.8-0.5,3.6-1.5c0.8-1,1.2-2.6,1.2-4.6c0-2-0.4-3.5-1.2-4.6c-0.8-1-2-1.6-3.6-1.6
			c-1.6,0-2.8,0.5-3.6,1.6C229.6,151,229.2,152.5,229.2,154.5 M241.7,154.5c0,2.7-0.7,4.7-2,6.2c-1.3,1.5-3.2,2.2-5.6,2.2
			c-2.5,0-4.4-0.7-5.7-2.2c-1.3-1.5-2-3.5-2-6.2c0-2.7,0.7-4.8,2-6.2c1.3-1.4,3.2-2.2,5.7-2.2c2.4,0,4.3,0.7,5.6,2.2
			C241,149.8,241.7,151.9,241.7,154.5 M212.1,154h1.9c1.2,0,2.1-0.2,2.7-0.7c0.6-0.5,0.8-1.1,0.8-2.1c0-0.9-0.3-1.6-0.9-2
			c-0.6-0.4-1.5-0.6-2.7-0.6h-1.8V154z M212.1,156.2v6.5h-2.7v-16.3h4.6c2.1,0,3.7,0.4,4.7,1.2c1,0.8,1.5,2,1.5,3.6
			c0,2-1.1,3.5-3.2,4.3l4.6,7.2h-3l-3.9-6.5H212.1z M198.9,162.7h-2.7v-14h-4.8v-2.3h12.3v2.3h-4.8V162.7z M185.8,162.7h-3.3l-8-13
			h-0.1l0.1,0.7c0.1,1.4,0.2,2.6,0.2,3.8v8.5h-2.4v-16.3h3.2l8,12.9h0.1c0-0.2,0-0.8-0.1-1.9c0-1.1-0.1-1.9-0.1-2.5v-8.5h2.4V162.7z
			 M153,154.5c0,2,0.4,3.5,1.2,4.6s2,1.6,3.6,1.6c1.6,0,2.8-0.5,3.6-1.5c0.8-1,1.2-2.6,1.2-4.6c0-2-0.4-3.5-1.2-4.6
			c-0.8-1-2-1.6-3.6-1.6c-1.6,0-2.8,0.5-3.6,1.6C153.4,151,153,152.5,153,154.5 M165.5,154.5c0,2.7-0.7,4.7-2,6.2
			c-1.3,1.5-3.2,2.2-5.6,2.2c-2.5,0-4.4-0.7-5.7-2.2c-1.3-1.5-2-3.5-2-6.2c0-2.7,0.7-4.8,2-6.2c1.3-1.4,3.2-2.2,5.7-2.2
			c2.4,0,4.3,0.7,5.6,2.2C164.8,149.8,165.5,151.9,165.5,154.5 M140.3,148.5c-1.5,0-2.7,0.5-3.6,1.6c-0.9,1.1-1.3,2.6-1.3,4.5
			c0,2,0.4,3.5,1.3,4.5c0.8,1,2.1,1.5,3.7,1.5c0.7,0,1.4-0.1,2-0.2c0.6-0.1,1.3-0.3,2-0.5v2.3c-1.3,0.5-2.7,0.7-4.4,0.7
			c-2.4,0-4.2-0.7-5.5-2.2c-1.3-1.4-1.9-3.5-1.9-6.2c0-1.7,0.3-3.2,0.9-4.5c0.6-1.3,1.5-2.2,2.7-2.9c1.2-0.7,2.6-1,4.1-1
			c1.7,0,3.2,0.3,4.6,1l-1,2.2c-0.6-0.3-1.1-0.5-1.7-0.7S140.9,148.5,140.3,148.5 M117.5,162.7h-9.2v-16.3h9.2v2.3h-6.6v4.4h6.1v2.2
			h-6.1v5.1h6.6V162.7z M93.1,154H95c1.2,0,2.1-0.2,2.7-0.7c0.6-0.5,0.8-1.1,0.8-2.1c0-0.9-0.3-1.6-0.9-2c-0.6-0.4-1.5-0.6-2.7-0.6
			h-1.8V154z M93.1,156.2v6.5h-2.7v-16.3H95c2.1,0,3.7,0.4,4.7,1.2c1,0.8,1.5,2,1.5,3.6c0,2-1.1,3.5-3.2,4.3l4.6,7.2h-3l-3.9-6.5
			H93.1z M83.1,146.4V157c0,1.2-0.3,2.3-0.8,3.2s-1.3,1.6-2.2,2.1c-1,0.5-2.1,0.7-3.5,0.7c-2,0-3.6-0.5-4.7-1.6
			c-1.1-1.1-1.7-2.5-1.7-4.4v-10.5h2.7v10.3c0,1.3,0.3,2.3,0.9,3s1.6,1,2.9,1c2.5,0,3.8-1.3,3.8-4v-10.3H83.1z M59.8,162.7h-2.7v-14
			h-4.8v-2.3h12.3v2.3h-4.8V162.7z M47.8,158.3c0,1.4-0.5,2.6-1.6,3.4c-1,0.8-2.5,1.2-4.3,1.2c-1.8,0-3.4-0.3-4.5-0.9v-2.5
			c0.7,0.3,1.5,0.6,2.4,0.8c0.8,0.2,1.6,0.3,2.3,0.3c1.1,0,1.8-0.2,2.3-0.6c0.5-0.4,0.8-0.9,0.8-1.6c0-0.6-0.2-1.1-0.7-1.5
			c-0.5-0.4-1.4-0.9-2.9-1.5c-1.5-0.6-2.5-1.3-3.1-2.1c-0.6-0.8-0.9-1.7-0.9-2.8c0-1.4,0.5-2.4,1.4-3.2c1-0.8,2.3-1.2,3.9-1.2
			c1.6,0,3.1,0.3,4.7,1l-0.8,2.2c-1.4-0.6-2.7-0.9-3.9-0.9c-0.9,0-1.5,0.2-2,0.6c-0.4,0.4-0.7,0.9-0.7,1.5c0,0.4,0.1,0.8,0.3,1.1
			c0.2,0.3,0.5,0.6,0.9,0.9c0.4,0.3,1.1,0.6,2.2,1.1c1.2,0.5,2.1,1,2.6,1.4c0.6,0.4,1,0.9,1.2,1.5C47.7,156.9,47.8,157.6,47.8,158.3
			 M31.7,162.7h-9.2v-16.3h9.2v2.3h-6.6v4.4h6.1v2.2h-6.1v5.1h6.6V162.7z M9.3,153.9h6v8.2c-1,0.3-1.9,0.5-2.8,0.7
			c-0.9,0.1-1.9,0.2-2.9,0.2c-2.5,0-4.4-0.7-5.7-2.2c-1.3-1.5-2-3.5-2-6.2c0-2.6,0.8-4.7,2.3-6.2s3.6-2.2,6.2-2.2
			c1.7,0,3.3,0.3,4.8,1l-0.9,2.2c-1.3-0.6-2.6-0.9-4-0.9c-1.7,0-3.1,0.5-4.1,1.6c-1,1.1-1.5,2.6-1.5,4.5c0,2,0.5,3.5,1.4,4.5
			c0.9,1,2.2,1.6,3.9,1.6c0.9,0,1.8-0.1,2.8-0.3v-4.2H9.3V153.9z"/>
		<g>
			<path fill="#00BBDE" d="M120.2,36.4c0-12-3.5-23.5-10.1-33.5c-1.3-1.8-3.5-2.9-5.7-2.9c-1.5,0-3,0.5-4.2,1.4
				c-3.2,2.3-3.9,6.8-1.6,9.8l0.1,0.1c4.8,7.5,7.4,16.2,7.4,25.1s-2.5,17.6-7.4,25.1l0,0c-0.9,1.1-2.6,1.3-3.7,0.5
				c-0.6-0.4-1-1-1.1-1.7c-0.1-0.7,0-1.4,0.5-2l0.1-0.1c4.1-6.6,6.3-14.1,6.3-21.8c0-7.7-2.2-15.3-6.2-21.8l-0.1-0.1
				c-1.3-1.8-3.5-2.9-5.7-2.9c-1.5,0-3,0.5-4.2,1.4c-1.5,1.1-2.5,2.8-2.8,4.6c-0.3,1.9,0.1,3.7,1.3,5.3c2.3,4.1,3.6,8.7,3.6,13.4
				c0,4.8-1.2,9.3-3.5,13.4l0,0.1c-0.8,1.1-2.5,1.4-3.7,0.5c-1.2-0.9-1.5-2.4-0.6-3.7l0.1-0.2c1.6-3.1,2.5-6.5,2.5-10.1
				c0-3.5-0.9-7-2.5-10.1c-1.1-2-3.3-3.3-5.6-3.3c-1.1,0-2.3,0.3-3.3,0.9c-1.8,1-2.6,3.8-2.5,8.2v63.5l0.6-0.1
				c29.8-3.5,52.3-28.6,52.5-58.7V36.4L120.2,36.4z M115.7,36.9C115.6,63,97.1,85.4,71.6,90.5V32.3c0-0.2,0-0.4,0-0.6
				c0-1.1-0.1-3.8,0.6-4.1c0.2-0.1,0.4-0.2,0.6-0.2c0.7,0,1.4,0.5,2.1,1.4c0.9,1.3,1.8,4.8,1.8,7.6c0,2.7-0.6,5.2-1.7,7.5L74.9,44
				c-2.1,3.6-1.4,7.6,1.7,9.9c1.2,0.9,2.7,1.4,4.2,1.4c2.2,0,4.4-1.1,5.7-2.9c2.9-4.8,4.4-10.4,4.4-16c0-5.7-1.5-11.2-4.3-16
				l-0.1-0.1c-0.4-0.6-0.6-1.3-0.5-2c0.1-0.7,0.5-1.3,1-1.7c1.2-0.9,2.8-0.6,3.7,0.5c3.6,5.8,5.4,12.5,5.4,19.3s-1.9,13.5-5.5,19.3
				c-2.3,3.1-1.6,7.5,1.6,9.9c1.2,0.9,2.7,1.4,4.2,1.4c2.2,0,4.4-1.1,5.7-2.9c5.3-8.3,8.2-17.8,8.2-27.7c0-9.9-2.8-19.4-8.1-27.6
				l-0.1-0.1c-0.4-0.6-0.6-1.3-0.5-2c0.1-0.7,0.5-1.3,1.1-1.7c1.1-0.9,2.9-0.6,3.7,0.5c6,9.2,9.2,19.9,9.2,30.9L115.7,36.9
				L115.7,36.9z"/>
			<path fill="#00BBDE" d="M0,36.4c0-12,3.5-23.5,10.1-33.5C11.4,1.1,13.6,0,15.8,0c1.5,0,3,0.5,4.2,1.4c3.2,2.3,3.9,6.8,1.6,9.8
				l-0.1,0.1c-4.8,7.5-7.3,16.2-7.3,25.1s2.5,17.6,7.3,25.1l0,0c0.9,1.1,2.5,1.3,3.7,0.5c0.6-0.4,1-1,1.1-1.7c0.1-0.7,0-1.4-0.5-2
				l-0.1-0.1c-4.1-6.6-6.3-14.1-6.3-21.8c0-7.7,2.2-15.3,6.2-21.8l0.1-0.1c1.3-1.8,3.5-2.9,5.7-2.9c1.5,0,3,0.5,4.2,1.4
				c1.5,1.1,2.5,2.8,2.8,4.6c0.3,1.9-0.1,3.7-1.3,5.3c-2.3,4.1-3.6,8.7-3.6,13.4c0,4.8,1.2,9.3,3.6,13.4l0,0.1
				c0.8,1.1,2.5,1.4,3.7,0.5c1.2-0.9,1.5-2.4,0.6-3.7l-0.1-0.2c-1.6-3.1-2.5-6.5-2.5-10.1c0-3.5,0.9-7,2.5-10.1
				c1.1-2,3.3-3.3,5.6-3.3c1.1,0,2.3,0.3,3.3,0.9c1.8,1,2.6,3.8,2.5,8.2l0,63.5l-0.6-0.1C22.6,92.1,0.1,66.9,0,36.9V36.4L0,36.4z
				 M4.4,36.9C4.5,63,23,85.4,48.6,90.5V32.3c0-0.2,0-0.4,0-0.6c0-1.1,0.1-3.8-0.6-4.1c-0.2-0.1-0.4-0.2-0.6-0.2
				c-0.7,0-1.4,0.5-2.1,1.4c-0.9,1.3-1.8,4.8-1.8,7.6c0,2.7,0.6,5.2,1.7,7.5l0.1,0.1c2.1,3.6,1.4,7.6-1.7,9.9
				c-1.2,0.9-2.7,1.4-4.2,1.4c-2.2,0-4.4-1.1-5.7-2.9c-2.9-4.8-4.4-10.4-4.4-16c0-5.7,1.5-11.2,4.3-16l0.1-0.1
				c0.4-0.6,0.6-1.3,0.5-2c-0.1-0.7-0.5-1.3-1-1.7c-1.2-0.9-2.8-0.6-3.7,0.5C25.9,22.9,24,29.6,24,36.4s1.9,13.5,5.5,19.3
				c2.3,3.1,1.6,7.5-1.6,9.9c-1.2,0.9-2.7,1.4-4.2,1.4c-2.2,0-4.4-1.1-5.7-2.9c-5.4-8.3-8.2-17.8-8.2-27.7c0-9.9,2.8-19.4,8.1-27.6
				L18,8.7c0.4-0.6,0.6-1.3,0.5-2C18.3,6,18,5.4,17.4,5c-1.1-0.9-2.9-0.6-3.7,0.5c-6,9.2-9.2,19.9-9.2,30.9L4.4,36.9L4.4,36.9z"/>
		</g>
		<g>
			<g>
				<path fill="#031A26" d="M393.9,28.5h-1.2v-6.2h-2.1v-1.1h5.5v1.1h-2.1V28.5z M400,28.5l-2-5.6h-0.1l0.1,1.3v4.3h-1.2v-7.3h1.9
					l2,5.6l2-5.6h1.8v7.3h-1.3v-4.2l0.1-1.4h-0.1l-2.1,5.6H400z"/>
			</g>
			<g>
				<path fill="#031A26" d="M287.6,74.9l-20.9-53.8H255l26.5,68.3l-8.6,20.7h11.8l37-89h-11.8L287.6,74.9z M387.8,55.2
					c0,22-12.7,36.2-32.4,36.2c-19.7,0-32.4-14.2-32.4-36.2c0-21.8,12.7-35.9,32.4-35.9C375,19.3,387.8,33.4,387.8,55.2z
					 M371.7,36.7c-3.7-4.6-9.2-7-16.4-7c-7.1,0-12.6,2.3-16.4,7c-3.6,4.4-5.6,11-5.6,18.5c0,6,1.6,25.7,21.9,25.7
					c20.3,0,21.9-19.7,21.9-25.7C377.3,47.7,375.3,41.2,371.7,36.7z M200.3,59.6l-33.4-52h-13.8v82.9h11.7V24.1L194,69.5l1.8,2.8
					h9.1l31.5-49v67.2H247V7.7h-13.3L200.3,59.6z"/>
			</g>
		</g>
	</g>
</g>
</svg>
