<?xml version="1.0" encoding="utf-8"?>
<!-- Generator: Adobe Illustrator 19.0.0, SVG Export Plug-In . SVG Version: 6.00 Build 0)  -->
<svg version="1.1" id="Layer_1" xmlns="http://www.w3.org/2000/svg" xmlns:xlink="http://www.w3.org/1999/xlink" x="0px" y="0px"
	 viewBox="0 0 651.3 120" style="enable-background:new 0 0 651.3 120;" xml:space="preserve">
<style type="text/css">
	.st0{clip-path:url(#SVGID_2_);fill:#0FAAB3;}
	.st1{clip-path:url(#SVGID_4_);}
	.st2{fill:#EE7528;}
</style>
<g>
	<defs>
		<rect id="SVGID_1_" width="651.3" height="120"/>
	</defs>
	<clipPath id="SVGID_2_">
		<use xlink:href="#SVGID_1_"  style="overflow:visible;"/>
	</clipPath>
	<path class="st0" d="M117.1,109.2c0,0-16,3.3-27.4,3.3c-29.8,0-36.4-18.3-36.4-51.3c0-33.8,7.1-51.8,36.4-51.8
		c13.1,0,27.5,3.3,27.5,3.3l-0.6,9.9c0,0-15.7-2.4-25.8-2.4c-22.3,0-26.2,13.4-26.2,41c0,27.1,3.7,40.5,26.5,40.5
		c8.9,0,25.5-2.6,25.5-2.6L117.1,109.2z"/>
	<path class="st0" d="M160.5,10.9h24.3l26.9,100.1h-10.9l-7.6-25.1h-41.8l-7.2,25.2h-11.1L160.5,10.9z M154,75.2h36.9L176,21.1h-7.2
		L154,75.2z"/>
	<polygon class="st0" points="316.1,10.9 336,10.9 375.8,98.1 378.9,98.1 378.9,10.9 390,10.9 390,111.1 370.6,111.1 330.3,23.8 
		327.2,23.8 327.2,111.1 316.1,111.1 	"/>
	<path class="st0" d="M409.5,61.5c0-33.1,8.6-52.1,39.5-52.1c30.8,0,39.3,18.9,39.3,52.1c0,34.3-8.5,51-39.3,51
		C417.9,112.5,409.5,95,409.5,61.5 M476.9,61.5c0-26.5-5.3-41.6-27.9-41.6c-22.9,0-27.9,15-27.9,41.6c0,26.6,4.8,40.5,27.9,40.5
		C472,102,476.9,89,476.9,61.5"/>
	<polygon class="st0" points="574.1,10.9 548,111.1 523.4,111.1 497.1,10.9 508.6,10.9 531.9,100.6 539.5,100.6 562.6,10.9 	"/>
	<path class="st0" d="M594.4,10.9h24.3l26.9,100.1h-10.9l-7.6-25.1h-41.8l-7.2,25.2h-11.1L594.4,10.9z M588,75.2h36.9L610,21.1h-7.2
		L588,75.2z"/>
	<path class="st0" d="M265.3,10.9h-36.4v10.7h21v0h15.3c14.5,0,20.6,6.8,20.6,21.5c0,14.8-6,23.9-20.6,23.9H240v0h-11.1v44.2H240
		V77.5h25.3c21.7,0,31.8-12.8,31.8-34.6C297.1,21.2,287.1,10.9,265.3,10.9"/>
</g>
<g>
	<defs>
		<rect id="SVGID_3_" x="7.6" y="7.7" width="36.7" height="44.2"/>
	</defs>
	<clipPath id="SVGID_4_">
		<use xlink:href="#SVGID_3_"  style="overflow:visible;"/>
	</clipPath>
	<g class="st1">
		<path class="st2" d="M21.1,51.9c0-0.1-0.4-0.8-0.7-2c-0.2-0.7-0.3-1.4-0.5-2.1c-0.1-0.9-0.2-1.8-0.2-2.6c0.1-2.2,0.6-4.3,1.7-6.1
			c1.3-2.2,3.4-4,6.1-5.4l0,0c0.5-0.2,3.1-1.4,6.5-1.1c1.9,0.2,3.6,0.7,5.2,1.7c1.9,1.2,3.5,2.9,4.9,5.1L39.9,42
			c-1.7-2.7-3.8-4.2-6.2-4.4c-0.8-0.1-1.7,0-2.5,0.2c-0.7,0.2-1.2,0.4-1.3,0.4c-3.2,1.6-4.9,3.9-5,7c-0.1,1.3,0.2,2.4,0.4,3.2
			c0.2,0.8,0.5,1.4,0.5,1.4c0,0,0,0,0,0L21.1,51.9z M8.8,44.3l-0.5-5c3.1-0.3,5.3-1.5,6.6-3.7c0.4-0.7,0.8-1.5,1-2.4
			c0.2-0.7,0.2-1.2,0.2-1.3c0-3.6-1.4-6.1-4-7.5c-1.1-0.6-2.3-0.9-3-1c-0.9-0.2-1.5-0.2-1.5-0.2c0,0,0,0,0,0l0-5
			c0.1,0,0.9,0,2.1,0.2c0.7,0.1,1.4,0.3,2.1,0.5c0.8,0.3,1.7,0.6,2.4,1c2,1,3.6,2.4,4.7,4.2c1.4,2.2,2.2,4.8,2.2,7.8v0
			c0,0.4-0.1,1.3-0.3,2.2c-0.3,1.4-0.8,2.7-1.5,3.9c-1,1.7-2.2,3-3.8,4.1C13.7,43.3,11.4,44.1,8.8,44.3z"/>
	</g>
	<g class="st1">
		<path class="st2" d="M34.3,24c-0.8,0-1.7-0.1-2.5-0.3c-1.2-0.3-2.4-0.7-3.7-1.4l0,0c-0.1-0.1-0.8-0.5-1.6-1.2
			c-0.9-0.8-1.7-1.8-2.3-2.8c-0.8-1.4-1.3-2.9-1.4-4.5c-0.1-0.9,0-1.9,0.2-2.9c0.2-1.1,0.5-2.1,1-3.3l1.4,0.6
			c-1.5,3.5-1.5,6.6,0.1,9.3c1.3,2.2,3.2,3.3,3.3,3.4c1.9,1,3.7,1.5,5.5,1.5c1.8,0,3.4-0.5,5-1.6c1.2-0.8,2.2-1.8,2.7-2.5
			c0.6-0.8,0.9-1.3,0.9-1.3v0l1.3,0.7c0,0-0.4,0.7-1.1,1.5c-0.4,0.5-0.8,1-1.3,1.4c-0.6,0.5-1.2,1-1.8,1.4c-1.6,1.1-3.3,1.7-5.1,1.8
			C34.8,24,34.5,24,34.3,24z"/>
	</g>
</g>
</svg>
